{"glyphs":{":":{"x_min":0,"x_max":240,"ha":240,"o":"m 190 50 b 195 77 177 99 150 99 b 124 99 96 77 91 50 b 87 24 106 0 132 0 b 159 0 186 24 190 50 z m 264 473 b 269 500 251 522 224 522 b 198 522 170 500 165 473 b 160 447 180 423 206 423 b 233 423 259 447 264 473 z"},"$":{"x_min":0,"x_max":632,"ha":632,"o":"m 401 720 l 397 699 b 270 689 172 615 153 508 b 133 395 192 340 331 302 l 296 105 b 243 115 201 138 160 172 b 152 179 141 183 129 183 b 98 183 70 159 64 128 b 61 107 68 91 83 80 b 136 37 201 10 274 2 l 263 -60 b 259 -84 276 -103 300 -103 b 324 -103 346 -84 350 -60 l 361 0 b 490 12 589 85 608 195 b 627 302 573 363 427 401 l 461 593 b 494 585 525 570 557 549 b 566 543 575 540 585 540 b 616 540 645 564 651 595 b 655 619 644 634 629 643 b 588 672 542 691 484 698 l 488 720 b 492 744 476 763 452 763 b 428 763 405 744 401 720 l 401 720 z m 489 188 b 480 140 440 108 375 101 l 407 283 b 479 259 497 232 489 188 l 489 188 z m 273 515 b 280 559 318 593 383 599 l 352 422 b 280 447 265 473 273 515 z"},"?":{"x_min":0,"x_max":534,"ha":534,"o":"m 165 122 b 136 122 109 99 104 70 l 101 51 b 96 22 115 -1 143 -1 b 172 -1 199 22 204 51 l 207 70 b 212 99 193 122 165 122 z m 266 699 b 185 699 105 655 55 589 b 37 564 39 533 62 519 b 84 504 116 513 135 537 l 135 537 b 162 573 204 596 248 596 b 313 596 357 543 346 478 b 334 412 272 359 206 359 b 178 359 151 336 146 308 b 146 307 146 307 146 306 b 146 305 145 305 145 304 l 126 194 b 121 165 140 143 168 143 b 196 143 223 165 228 194 l 241 263 b 342 286 430 373 448 478 b 470 600 388 699 266 699 z"},"<":{"x_min":0,"x_max":620,"ha":620,"o":"m 512 682 b 492 707 451 707 422 682 l 88 396 b 81 390 75 383 71 376 b 71 376 70 375 70 375 b 68 372 67 369 66 366 b 65 365 65 364 65 363 b 64 360 63 358 62 355 b 62 354 61 352 61 351 b 61 349 61 347 61 344 b 61 342 60 341 60 339 b 60 337 61 335 61 334 b 61 331 61 329 62 327 b 62 326 62 325 63 324 b 64 321 64 318 66 316 b 66 315 66 315 67 314 b 68 311 70 308 72 306 l 305 20 b 316 7 331 1 347 1 b 364 1 381 7 396 19 b 425 44 432 85 412 110 l 215 351 l 497 592 b 526 617 533 657 512 682 z"},"'":{"x_min":0,"x_max":230,"ha":230,"o":"m 69 433 b 68 410 83 395 103 395 b 122 395 133 407 140 426 l 213 648 b 215 656 217 664 217 670 b 217 691 202 703 183 703 l 144 703 b 111 703 89 679 87 647 z"},"=":{"x_min":0,"x_max":620,"ha":620,"o":"m 115 259 l 115 259 l 301 259 l 301 259 b 321 259 336 275 336 295 l 336 295 b 336 315 321 331 301 331 l 115 331 l 115 331 b 95 331 79 315 79 295 l 79 295 b 79 275 95 259 115 259 z m 115 372 l 115 372 l 301 372 l 301 372 b 321 372 336 387 336 407 l 336 407 b 336 426 321 442 301 442 l 115 442 l 115 442 b 95 442 79 426 79 407 l 79 407 b 79 387 95 372 115 372 z"},"a":{"x_min":0,"x_max":619,"ha":619,"o":"m 246 1 b 246 1 246 1 246 1 b 295 1 344 18 386 44 b 387 20 404 1 431 1 b 460 1 487 25 493 55 l 561 446 b 567 476 548 499 518 499 b 492 499 468 481 459 457 b 426 483 383 499 334 499 b 268 499 202 471 151 426 b 101 380 64 318 53 250 b 40 183 56 121 90 75 b 124 30 180 1 246 1 z m 216 353 b 245 378 279 394 315 394 b 351 394 380 378 399 353 b 419 327 429 291 421 250 b 414 210 393 174 363 148 b 335 122 300 107 265 107 b 229 107 199 122 180 148 b 160 174 151 210 158 250 b 165 291 187 327 216 353 z"},"L":{"x_min":0,"x_max":619,"ha":619,"o":"m 155 2 b 156 2 156 3 156 3 b 157 3 157 2 157 2 l 481 2 b 512 2 541 27 547 58 b 552 88 532 113 501 113 l 230 113 l 324 647 b 330 678 309 702 279 702 b 248 702 219 678 214 647 l 110 58 b 104 27 125 2 155 2 z"},"3":{"x_min":0,"x_max":610,"ha":610,"o":"m 441 473 l 590 603 b 595 607 599 612 603 617 b 608 625 613 634 614 644 b 620 675 599 700 568 700 l 273 700 b 241 700 211 675 206 644 b 200 612 221 587 253 587 l 414 587 l 294 483 b 269 460 263 425 281 403 b 282 402 282 402 282 402 b 291 390 304 383 321 384 b 355 383 387 371 409 344 b 430 318 437 284 431 249 b 425 214 406 180 375 153 b 343 127 307 114 272 114 b 237 114 205 127 184 153 b 166 175 130 175 104 153 b 78 131 71 95 89 73 b 129 25 189 0 252 0 b 252 0 252 0 252 0 b 316 0 384 25 441 73 b 498 122 534 186 545 249 b 556 312 543 376 503 424 b 486 445 465 461 441 473 z"},";":{"x_min":0,"x_max":240,"ha":240,"o":"m 257 471 b 263 498 245 520 218 520 b 192 520 164 498 158 471 b 153 445 173 421 199 421 b 226 421 252 445 257 471 z m 175 60 b 175 60 175 60 175 60 b 175 60 175 60 175 60 b 173 60 174 61 174 61 b 173 84 156 100 132 100 b 107 100 82 77 77 51 b 72 25 88 3 113 3 b 120 3 124 3 128 4 b 118 -12 104 -29 75 -35 b 66 -38 59 -45 60 -53 b 60 -60 66 -65 72 -65 b 73 -65 75 -65 75 -65 b 145 -49 167 11 173 41 b 175 53 175 58 175 60 z"},"J":{"x_min":0,"x_max":594,"ha":594,"o":"m 94 241 b 63 231 42 200 46 171 b 60 71 141 -1 252 -1 b 389 -1 520 110 544 247 l 614 644 b 619 674 599 699 568 699 b 538 699 508 674 503 644 l 503 644 l 433 247 b 420 171 347 110 271 110 b 210 109 165 150 157 205 b 153 234 125 250 94 241 z"},"V":{"x_min":0,"x_max":750,"ha":750,"o":"m 645 697 b 619 709 584 696 567 667 l 288 199 l 173 667 b 166 696 136 709 106 697 b 75 685 56 653 63 624 l 208 35 b 208 32 209 29 211 27 b 211 26 211 26 211 26 b 213 23 214 21 215 19 b 216 18 216 18 217 17 b 219 15 220 13 222 12 b 223 11 223 11 223 11 b 226 9 229 7 232 6 b 232 6 232 6 232 6 b 232 6 233 5 233 5 b 236 4 238 3 241 3 b 242 3 242 2 243 2 b 246 2 249 1 253 1 l 253 1 l 253 1 b 256 1 259 2 263 2 b 263 2 264 3 265 3 b 268 3 271 4 274 5 b 274 5 274 5 275 6 b 275 6 275 6 276 6 b 279 7 282 9 285 11 b 286 11 286 11 287 12 b 289 13 292 15 294 17 b 295 18 296 18 296 19 b 298 21 301 23 303 25 b 303 26 303 26 304 27 b 306 29 308 32 310 35 l 662 624 b 679 653 671 685 645 697 z"},"\"":{"x_min":0,"x_max":410,"ha":410,"o":"m 289 433 b 287 410 303 395 322 395 b 341 395 351 407 358 426 l 431 648 b 433 656 435 664 435 670 b 435 691 421 703 403 703 l 363 703 b 330 703 308 679 306 647 z m 69 433 b 68 410 83 395 103 395 b 122 395 132 407 139 426 l 212 648 b 214 656 216 664 216 670 b 216 691 202 703 183 703 l 144 703 b 111 703 89 679 87 647 z"},"7":{"x_min":0,"x_max":587,"ha":587,"o":"m 536 654 b 536 656 536 658 535 659 b 535 661 535 662 535 664 b 534 666 534 668 533 670 b 532 671 532 672 531 673 b 531 675 530 676 529 678 b 528 679 527 680 526 682 b 525 683 523 684 522 686 b 521 687 520 688 519 689 b 514 693 508 696 501 697 b 497 698 493 698 489 698 l 148 698 b 118 698 89 673 83 643 b 78 612 98 587 129 587 l 387 587 l 81 75 b 64 47 71 14 97 2 b 104 0 111 -2 118 -2 b 140 -2 162 11 175 32 l 527 621 b 529 624 531 628 532 632 b 535 639 536 647 536 654 z"},"S":{"x_min":0,"x_max":667,"ha":667,"o":"m 83 98 l 83 98 b 130 53 210 1 316 0 l 316 0 b 385 0 451 20 506 55 l 506 55 b 560 90 604 144 615 206 l 615 206 b 621 236 618 265 607 290 l 607 290 b 591 326 560 351 525 370 l 525 370 b 488 389 445 402 397 411 l 397 411 l 395 411 l 395 411 b 344 421 303 436 280 454 l 280 454 b 269 463 262 471 259 479 l 259 479 b 255 487 254 495 256 506 l 256 506 b 260 527 275 548 304 568 l 304 568 b 333 587 375 601 420 600 l 420 600 b 479 601 522 571 566 539 l 566 539 b 586 523 618 530 637 553 l 637 553 b 656 576 656 607 635 622 l 635 622 b 591 654 531 700 437 700 l 437 700 b 373 700 311 681 260 648 l 260 648 b 209 616 167 565 156 506 l 156 506 b 151 478 154 450 164 427 l 164 427 b 180 392 208 369 242 351 l 242 351 b 276 334 316 322 360 313 l 361 313 l 362 313 l 362 313 b 418 302 463 285 488 266 l 488 266 b 501 257 508 247 513 237 l 513 237 b 517 228 518 219 516 206 l 516 206 b 511 182 494 158 461 136 l 461 136 b 429 115 383 100 334 100 l 334 100 b 263 99 196 140 160 175 l 160 175 b 141 192 109 189 88 168 l 88 168 b 67 146 65 115 83 98 z"},"}":{"x_min":0,"x_max":480,"ha":480,"o":"m 254 696 b 225 703 197 684 192 655 b 188 631 202 618 213 614 b 305 584 313 553 301 485 b 298 465 290 432 286 411 b 272 333 303 296 366 274 b 296 253 252 215 238 137 b 234 116 230 83 227 63 b 215 -5 195 -36 93 -66 b 80 -70 62 -83 58 -107 b 53 -136 73 -155 106 -148 b 267 -114 319 -52 336 45 b 338 60 343 100 346 117 b 359 191 391 223 460 226 b 492 228 514 247 519 274 b 524 301 508 320 477 322 b 409 324 389 357 402 430 b 405 447 414 487 416 502 b 434 600 403 662 254 696 z"},"Z":{"x_min":0,"x_max":667,"ha":667,"o":"m 718 647 b 718 649 718 651 718 653 b 718 655 718 657 718 659 b 718 660 717 662 717 664 b 717 665 716 667 716 669 b 715 670 715 672 714 673 b 713 675 712 676 711 678 b 711 679 710 680 709 682 b 708 683 706 684 705 686 b 704 687 703 688 703 688 b 702 689 702 689 702 689 b 700 690 699 691 697 692 b 696 693 695 694 693 694 b 692 695 690 695 689 696 b 687 697 685 697 683 698 b 682 698 681 698 679 698 b 677 699 675 699 673 699 b 672 699 672 699 672 699 l 241 699 b 211 699 181 674 176 644 b 171 613 191 588 222 588 l 543 588 l 88 87 b 88 87 88 86 88 86 b 86 84 85 83 84 81 b 83 80 82 78 81 77 b 80 75 79 74 78 72 b 77 70 76 68 75 66 b 75 65 75 64 74 62 b 74 60 73 58 72 55 b 72 55 72 55 72 54 b 72 53 72 52 72 51 b 72 49 71 47 71 44 b 71 43 72 41 72 40 b 72 38 72 36 72 34 b 73 33 73 31 74 30 b 74 28 75 26 76 25 b 76 23 77 22 78 21 b 79 19 80 18 81 16 b 82 15 83 14 84 12 b 85 12 86 10 87 10 b 87 9 88 9 88 9 b 89 8 89 8 90 7 b 92 6 94 5 96 4 b 97 4 98 3 98 3 b 101 2 103 1 105 1 b 106 0 107 0 108 0 b 111 -1 114 -1 118 -1 b 118 -1 118 -1 118 -1 l 548 -1 b 579 -1 608 24 613 54 b 619 85 598 110 568 110 l 246 110 l 701 611 b 701 611 701 612 702 612 b 703 614 704 616 706 617 b 707 619 708 620 709 621 b 710 623 711 625 711 627 b 712 628 713 630 714 632 b 715 633 715 635 715 636 b 716 638 717 641 717 643 b 717 643 717 643 717 644 b 718 645 718 646 718 647 z"},"x":{"x_min":0,"x_max":570,"ha":570,"o":"m 515 483 b 495 500 461 495 441 471 l 317 336 l 242 471 b 228 495 196 500 170 483 b 144 466 133 433 146 409 l 236 247 l 88 84 b 67 61 67 28 87 11 b 95 4 106 1 116 1 b 133 1 149 8 163 22 l 285 158 l 360 22 b 369 8 384 1 399 1 b 410 1 421 4 432 11 b 459 28 469 61 456 84 l 366 247 l 514 409 b 535 433 536 466 515 483 z"},")":{"x_min":0,"x_max":430,"ha":430,"o":"m 371 666 b 343 691 304 705 261 705 l 259 705 b 224 705 191 677 185 642 b 178 607 201 579 236 579 b 255 578 266 574 276 565 b 292 552 305 522 310 476 b 316 430 313 371 300 305 b 286 218 259 141 228 94 b 213 70 198 54 184 45 b 171 36 159 32 140 32 b 105 32 72 3 66 -32 b 60 -66 82 -95 117 -95 b 161 -95 206 -81 244 -55 b 299 -17 337 38 366 99 b 395 161 414 231 427 305 b 445 404 448 495 427 570 b 416 607 398 641 371 666 z"},"&":{"x_min":0,"x_max":696,"ha":696,"o":"m 571 447 b 540 440 517 411 518 381 b 519 374 518 369 517 365 b 517 361 516 359 515 359 b 515 358 514 358 512 357 b 509 356 505 356 500 356 b 500 356 499 356 498 356 b 487 356 475 357 465 357 b 395 357 340 339 300 306 b 260 273 245 232 241 205 b 236 182 238 166 239 163 b 242 139 261 124 285 124 b 290 124 296 124 301 126 b 332 135 354 166 350 195 b 350 196 350 200 351 205 b 353 214 356 221 363 227 b 370 233 391 246 443 246 b 443 244 442 242 442 240 b 429 169 361 111 289 111 b 218 111 170 169 183 240 b 192 292 230 336 277 357 b 278 358 280 359 282 360 b 283 361 284 361 285 362 b 287 363 288 363 289 364 b 293 367 298 371 302 375 b 303 377 303 378 304 379 b 304 379 304 379 305 379 b 323 404 323 436 302 453 b 285 466 277 489 281 514 b 289 556 328 589 370 589 b 411 589 439 556 432 514 b 426 483 447 459 477 459 b 508 459 537 483 542 514 b 560 617 492 700 389 700 b 287 700 189 617 171 514 b 164 479 169 445 181 417 b 125 373 84 310 72 240 b 49 107 137 0 270 0 b 403 0 529 107 553 240 b 554 248 555 256 556 264 b 560 266 563 268 567 271 b 598 291 622 328 628 365 b 630 378 631 392 630 405 b 629 435 602 454 571 447 z"},"_":{"x_min":0,"x_max":600,"ha":600,"o":"m 18 -160 l 622 -160 b 648 -160 674 -139 680 -113 b 685 -87 669 -66 643 -66 l 39 -66 b 13 -66 -13 -87 -18 -113 b -24 -139 -8 -160 18 -160 z"},"v":{"x_min":0,"x_max":582,"ha":582,"o":"m 469 490 b 444 501 411 489 395 462 l 232 188 l 164 462 b 158 489 129 501 100 490 b 71 478 53 448 60 421 l 155 31 b 156 29 157 26 158 23 b 158 23 159 22 159 22 b 160 20 161 18 163 16 b 163 16 164 15 164 15 b 166 13 168 11 170 10 b 170 9 170 9 171 9 b 173 7 175 5 178 4 b 178 4 178 4 178 4 b 179 3 179 3 179 3 b 182 2 184 1 187 1 b 187 1 188 0 189 0 b 192 0 195 -1 198 -1 b 198 -1 198 -1 198 -1 b 198 -1 198 -1 198 -1 b 198 -1 198 -1 198 -1 b 198 -1 198 -1 199 -1 b 202 -1 205 0 208 0 b 208 0 209 1 210 1 b 213 1 215 2 218 3 b 218 3 219 3 219 4 b 219 4 220 4 220 4 b 223 5 226 7 229 9 b 230 9 230 9 231 10 b 233 11 236 13 238 15 b 239 15 239 16 240 16 b 242 18 243 20 245 22 b 246 22 246 23 247 23 b 249 26 251 29 252 31 l 484 421 b 501 448 493 478 469 490 z"},"O":{"x_min":0,"x_max":850,"ha":850,"o":"m 361 -1 b 361 -1 361 -1 361 -1 b 454 -1 545 39 616 103 b 687 166 739 253 755 349 b 772 444 751 532 703 595 b 654 659 577 699 485 699 b 392 699 301 659 230 595 b 159 532 107 444 90 349 b 73 253 94 166 143 103 b 191 39 268 -1 361 -1 z m 297 519 b 345 562 405 588 465 588 b 525 588 576 562 609 519 b 642 476 657 416 645 349 b 633 282 597 222 549 178 b 500 135 441 110 381 109 b 320 110 270 135 237 178 b 204 222 189 282 201 349 b 213 416 249 476 297 519 z"},"(":{"x_min":0,"x_max":430,"ha":430,"o":"m 148 -56 b 176 -81 215 -95 258 -95 l 260 -95 b 295 -95 328 -67 334 -32 b 341 3 318 31 283 31 b 264 32 253 36 243 45 b 227 58 214 88 209 134 b 203 180 206 239 219 305 b 233 392 260 469 291 516 b 306 540 321 556 335 565 b 348 574 360 578 379 578 b 414 578 447 607 453 642 b 459 676 437 705 402 705 b 358 705 313 691 275 665 b 220 627 182 572 153 511 b 124 449 105 379 92 305 b 74 206 71 115 92 40 b 103 3 121 -31 148 -56 z"},"C":{"x_min":0,"x_max":719,"ha":719,"o":"m 404 0 b 404 0 404 0 404 0 b 487 0 570 28 639 76 b 667 94 677 129 663 153 b 648 177 614 182 587 163 b 539 130 482 111 423 111 b 354 111 297 138 260 181 b 223 225 206 284 218 350 b 229 416 267 475 320 519 b 372 562 439 589 507 589 b 566 589 616 569 653 537 b 674 518 709 522 732 546 b 755 570 757 605 736 624 b 684 672 611 700 527 700 b 330 700 142 544 107 350 b 73 155 207 0 404 0 z"},"W":{"x_min":0,"x_max":1102,"ha":1102,"o":"m 1015 696 b 989 708 955 695 938 667 l 658 199 l 582 509 b 577 531 558 543 535 543 b 513 543 490 531 477 509 l 291 199 l 177 667 b 170 695 140 708 109 696 b 79 684 60 652 67 624 l 211 35 b 212 32 213 29 215 26 b 215 26 215 25 215 25 b 216 23 218 20 219 18 b 220 18 220 17 221 17 b 222 15 224 13 226 11 b 226 11 227 11 227 10 b 230 8 232 7 235 5 b 235 5 236 5 236 5 b 236 5 237 5 237 5 b 240 4 242 3 244 2 b 245 2 246 2 247 2 b 250 1 253 1 256 1 b 256 1 256 1 256 1 b 257 1 257 1 257 1 b 257 1 257 1 257 1 b 257 1 257 1 257 1 b 260 1 263 1 266 2 b 267 2 268 2 269 2 b 272 3 274 4 277 5 b 278 5 278 5 279 5 b 279 5 279 5 280 5 b 283 7 286 8 289 10 b 290 11 290 11 291 11 b 293 13 296 15 298 17 b 299 17 299 18 300 18 b 302 20 304 23 306 25 b 307 25 307 26 308 26 b 310 29 312 32 314 35 l 501 348 l 578 35 b 579 32 580 29 581 26 b 581 26 582 25 582 25 b 583 23 584 20 586 18 b 586 18 587 17 587 17 b 589 15 591 13 593 11 b 593 11 593 11 594 10 b 596 8 599 7 602 5 b 602 5 602 5 602 5 b 603 5 603 5 604 5 b 606 4 608 3 611 2 b 612 2 613 2 614 2 b 617 1 620 1 623 1 b 623 1 623 1 623 1 b 623 1 623 1 623 1 b 623 1 623 1 623 1 b 623 1 623 1 623 1 b 626 1 630 1 633 2 b 634 2 635 2 636 2 b 638 3 641 4 644 5 b 644 5 645 5 645 5 b 646 5 646 5 646 5 b 649 7 653 8 656 10 b 656 11 657 11 657 11 b 660 13 662 15 664 17 b 665 17 666 18 667 18 b 669 20 671 23 673 25 b 673 25 674 26 674 26 b 676 29 678 32 680 35 l 1032 624 b 1049 652 1042 684 1015 696 z"},"A":{"x_min":0,"x_max":646,"ha":646,"o":"m 239 165 l 483 165 l 509 36 b 513 14 532 0 554 0 b 561 0 567 1 574 3 b 605 14 625 46 619 75 l 502 664 b 497 687 478 700 455 700 b 432 700 408 687 396 664 l 71 75 b 55 46 64 14 90 3 b 96 1 103 0 109 0 b 132 0 155 14 167 36 l 239 165 z m 300 275 l 418 490 l 461 275 l 300 275 z"},"f":{"x_min":0,"x_max":362,"ha":362,"o":"m 292 583 b 294 584 294 584 299 586 b 303 588 312 589 325 589 b 355 589 384 614 390 644 b 395 675 375 700 344 700 b 324 700 304 698 283 691 b 252 683 219 659 200 630 b 180 600 170 569 164 532 l 161 518 l 135 518 b 105 518 76 493 70 463 b 65 432 85 407 116 407 l 142 407 l 80 55 b 74 24 95 0 125 0 b 156 0 185 24 190 55 l 252 407 l 282 407 b 312 407 341 432 347 463 b 352 493 332 518 301 518 l 272 518 l 274 532 b 281 569 291 582 292 583 z"},"Q":{"x_min":0,"x_max":844,"ha":844,"o":"m 786 -18 b 771 8 735 12 705 -8 b 660 -38 629 -47 599 -47 b 566 -47 530 -33 492 -10 l 515 0 b 562 19 606 48 647 82 b 721 150 778 242 794 345 b 813 447 789 541 738 609 b 687 676 604 720 505 720 b 406 720 309 676 232 609 b 157 541 101 447 85 345 b 66 242 88 150 141 82 b 165 50 198 23 236 2 l 234 1 b 202 -12 183 -48 191 -78 b 193 -86 198 -94 204 -100 b 205 -100 205 -100 205 -101 b 206 -102 208 -102 210 -103 b 225 -114 247 -117 270 -106 l 270 -106 b 275 -103 311 -88 345 -88 b 366 -88 385 -94 403 -104 b 451 -136 506 -164 578 -164 b 578 -164 578 -164 579 -164 b 637 -164 699 -144 761 -101 b 791 -80 802 -44 786 -18 z m 202 345 b 214 418 254 482 305 528 b 357 574 420 600 484 600 b 549 600 603 574 639 528 b 674 482 689 418 677 345 b 665 274 625 210 574 163 b 522 118 458 89 394 89 b 330 89 276 118 240 163 b 205 210 190 274 202 345 z"},"w":{"x_min":0,"x_max":861,"ha":861,"o":"m 711 488 b 687 500 654 487 638 461 l 475 189 l 434 357 b 429 378 412 390 390 389 b 370 390 348 378 335 357 l 235 189 l 168 461 b 162 487 133 500 104 488 b 76 478 58 447 65 420 l 159 34 b 160 31 161 28 162 26 b 162 25 163 25 163 24 b 164 22 165 20 167 18 b 167 17 168 17 168 16 b 170 15 172 14 173 12 b 174 12 174 11 175 11 b 176 9 179 8 181 6 b 182 6 182 6 182 6 b 183 6 183 6 184 5 b 186 5 188 4 190 3 b 191 3 192 3 193 3 b 196 2 199 2 202 2 b 202 2 202 2 202 2 b 202 2 202 2 202 2 b 202 2 202 2 202 2 b 202 2 202 2 202 2 b 205 2 208 2 211 3 b 212 3 213 3 214 3 b 216 4 219 5 222 5 b 222 6 223 6 223 6 b 223 6 224 6 224 6 b 227 8 229 9 232 11 b 233 11 234 12 234 12 b 236 14 239 15 241 16 b 242 17 242 17 243 18 b 245 20 247 22 249 24 b 250 25 250 25 250 26 b 253 28 255 31 255 34 l 358 205 l 400 34 b 401 31 402 28 403 26 b 403 25 403 25 404 24 b 405 22 406 20 407 18 b 408 17 409 17 409 16 b 411 15 412 14 413 12 b 414 12 414 11 415 11 b 417 9 419 8 422 6 b 422 6 423 6 423 6 b 423 6 424 6 424 5 b 427 5 429 4 431 3 b 432 3 433 3 434 3 b 437 2 439 2 442 2 b 442 2 442 2 442 2 b 442 2 442 2 442 2 b 442 2 442 2 442 2 b 442 2 442 2 442 2 b 445 2 449 2 452 3 b 453 3 454 3 455 3 b 457 4 460 5 462 5 b 463 6 463 6 464 6 b 464 6 464 6 464 6 b 467 8 470 9 473 11 b 474 11 474 12 475 12 b 477 14 479 15 482 16 b 482 17 483 17 484 18 b 486 20 488 22 490 24 b 490 25 490 25 490 26 b 492 28 494 31 496 34 l 727 420 b 743 447 736 478 711 488 z"},"-":{"x_min":0,"x_max":408,"ha":408,"o":"m 288 308 l 288 308 b 308 308 323 324 323 344 l 323 344 b 323 364 308 380 288 380 l 102 380 l 102 380 b 82 380 66 364 66 344 l 66 344 b 66 324 82 308 102 308 z"},"E":{"x_min":0,"x_max":593,"ha":593,"o":"m 155 -2 b 155 -2 155 -2 155 -2 b 156 -2 156 -2 156 -2 l 481 -2 b 511 -2 540 23 546 53 b 551 84 531 109 500 109 l 229 109 l 262 293 l 495 293 b 526 293 555 317 560 348 b 566 379 545 403 515 403 l 281 403 l 314 587 l 585 587 b 615 587 644 612 650 643 b 655 673 635 698 604 698 l 280 698 b 280 698 279 698 279 698 b 279 698 278 698 278 698 b 247 698 218 673 213 643 l 109 53 b 104 23 124 -2 155 -2 z"},"s":{"x_min":0,"x_max":492,"ha":492,"o":"m 71 70 l 71 70 b 104 38 159 2 235 1 l 235 1 b 283 1 332 16 372 41 l 372 41 b 411 67 445 108 454 155 l 454 155 b 458 180 456 202 447 222 l 447 222 b 435 250 412 269 387 282 l 387 282 b 362 296 332 305 299 311 l 298 311 l 297 312 l 297 312 b 265 317 240 326 230 335 l 230 335 b 224 339 221 343 220 345 l 220 345 b 220 348 219 349 220 353 l 220 353 b 221 357 225 366 240 375 l 240 375 b 254 386 278 394 303 394 l 303 394 b 335 394 360 377 388 356 l 388 356 b 409 340 444 347 463 371 l 463 371 b 484 395 483 429 461 444 l 461 444 l 461 444 b 433 466 390 500 321 500 l 321 500 b 276 500 231 486 192 462 l 192 462 b 156 437 123 398 114 353 l 114 353 b 111 330 114 309 121 291 l 121 291 b 133 263 156 245 177 232 l 177 232 b 201 220 230 212 260 206 l 261 206 l 261 206 l 261 206 l 261 206 b 296 199 324 188 338 179 l 338 179 b 344 173 347 169 349 166 l 349 166 b 350 162 350 160 350 155 l 350 155 b 348 147 342 138 325 126 l 325 126 b 308 116 281 108 253 108 l 253 108 b 215 107 174 129 154 150 l 154 150 b 134 170 99 167 76 143 l 76 143 b 54 121 51 89 71 70 z"},">":{"x_min":0,"x_max":620,"ha":620,"o":"m 562 357 b 562 359 562 361 562 363 b 562 365 562 366 562 368 b 561 370 561 373 561 375 b 561 376 560 377 560 378 b 559 380 558 383 557 386 b 557 386 557 387 556 387 b 555 390 553 393 551 396 l 317 682 b 297 707 256 707 227 682 b 198 657 190 617 211 592 l 408 351 l 126 110 b 96 85 89 44 110 19 b 120 7 135 1 152 1 b 168 1 186 7 200 20 l 535 306 b 538 308 540 311 543 314 b 543 314 544 315 544 316 b 547 318 549 322 551 325 b 551 325 552 326 552 327 b 554 330 555 333 557 336 b 557 337 558 338 558 339 b 559 341 560 344 560 347 b 561 348 561 349 561 351 b 562 353 562 355 562 357 z"},"l":{"x_min":0,"x_max":249,"ha":249,"o":"m 209 644 l 105 55 b 100 24 121 -1 151 -1 b 182 -1 211 24 216 55 l 320 644 b 325 675 305 699 275 699 b 244 699 215 675 209 644 z"},"8":{"x_min":0,"x_max":630,"ha":630,"o":"m 484 435 b 510 462 528 496 535 533 b 551 624 490 698 399 698 b 308 698 221 624 205 533 b 198 496 204 462 220 435 b 148 392 93 319 79 236 b 55 105 144 -2 275 -2 b 407 -2 533 105 556 236 b 570 319 541 392 484 435 z m 379 589 b 411 589 431 564 426 533 b 420 503 391 478 360 477 b 329 478 308 503 313 533 b 319 564 348 589 379 589 z m 294 107 b 223 107 175 165 187 236 b 200 308 268 366 340 366 b 412 366 459 308 447 236 b 434 165 366 107 294 107 z"},"\\":{"x_min":0,"x_max":500,"ha":500,"o":"m 337 4 b 366 15 379 48 367 76 l 367 76 l 122 659 b 110 687 78 700 49 688 l 49 688 b 22 677 9 644 21 617 l 21 617 l 266 33 b 275 12 296 0 317 0 l 317 0 b 323 0 331 1 337 4 l 337 4 z"},"e":{"x_min":0,"x_max":609,"ha":609,"o":"m 280 0 b 370 0 426 21 486 77 b 505 96 507 124 490 143 b 488 145 456 177 418 141 b 385 111 337 100 299 103 b 265 106 227 124 211 148 b 197 165 189 191 189 214 l 508 214 b 535 214 560 230 567 254 b 568 256 569 261 569 263 b 569 263 569 263 569 263 b 569 263 569 263 569 263 b 570 264 570 266 570 268 b 587 403 502 500 371 500 b 234 500 108 386 83 250 b 58 114 143 1 280 0 z m 354 405 b 440 398 480 339 482 299 l 199 299 b 215 340 268 401 354 405 z"},"b":{"x_min":0,"x_max":660,"ha":660,"o":"m 144 -2 b 170 -2 194 16 204 41 b 239 14 282 -2 334 -2 b 471 -2 598 111 622 249 b 646 387 558 500 422 500 b 372 500 323 484 279 459 l 310 645 b 316 675 295 700 265 700 b 235 700 206 675 201 645 l 99 53 b 93 22 114 -2 144 -2 z m 301 350 b 330 376 367 392 402 392 b 440 392 471 376 492 350 b 511 324 520 288 513 249 b 506 209 485 173 455 148 b 425 122 389 106 354 106 b 316 106 285 122 265 148 b 245 173 236 209 243 249 b 250 288 271 324 301 350 z"},"m":{"x_min":0,"x_max":951,"ha":951,"o":"m 557 292 b 558 293 558 294 558 294 b 569 350 622 395 678 395 b 735 395 772 349 762 292 l 721 56 b 715 26 735 2 764 2 b 793 2 822 26 826 56 l 868 292 b 888 407 812 500 697 500 b 634 500 575 474 529 431 b 498 474 448 500 385 500 b 346 500 307 489 273 470 b 267 488 251 500 230 500 b 200 500 173 477 167 447 l 140 292 b 140 292 140 292 140 292 l 99 56 b 93 26 113 2 142 2 b 171 2 199 26 204 56 l 246 292 b 256 349 311 395 366 395 b 422 395 460 350 451 294 b 451 294 451 293 451 292 l 409 56 b 405 26 424 2 453 2 b 453 2 453 2 453 2 b 453 2 453 2 453 2 b 483 2 510 26 516 56 l 557 292 z"},"#":{"x_min":0,"x_max":700,"ha":700,"o":"m 125 56 b 120 22 144 -5 176 -5 b 206 -5 225 16 229 38 l 250 161 l 407 161 l 388 56 b 383 25 407 -5 440 -5 b 466 -5 488 13 492 38 l 513 161 l 588 161 b 617 161 640 185 640 213 b 640 242 617 265 588 265 l 531 265 l 561 439 l 625 439 b 653 439 677 463 677 491 b 677 520 653 543 625 543 l 579 543 l 596 644 b 601 675 577 705 545 705 b 518 705 496 688 492 662 l 472 543 l 315 543 l 333 644 b 337 675 314 705 281 705 b 255 705 233 688 229 662 l 209 543 l 133 543 b 105 543 81 519 81 491 b 81 463 105 439 133 439 l 191 439 l 161 265 l 97 265 b 68 265 45 241 45 213 b 45 184 68 161 97 161 l 143 161 z m 268 265 l 298 439 l 454 439 l 424 265 z"},",":{"x_min":0,"x_max":230,"ha":230,"o":"m 151 58 b 151 58 151 58 151 58 b 151 58 151 58 151 58 b 149 58 149 59 149 59 b 144 82 124 98 100 98 b 75 98 54 75 54 49 b 54 23 75 1 100 1 b 107 1 111 1 114 2 b 107 -14 97 -31 69 -37 b 60 -40 55 -47 57 -55 b 59 -62 66 -67 72 -67 b 73 -67 75 -67 75 -67 b 141 -51 152 9 152 39 b 152 51 151 56 151 58 z"},"n":{"x_min":0,"x_max":613,"ha":613,"o":"m 410 55 b 405 25 424 1 454 1 b 483 1 511 25 515 55 l 557 291 b 578 407 501 500 385 500 b 346 500 307 489 272 469 b 267 488 251 500 230 500 b 201 500 173 476 167 447 l 140 291 b 140 291 140 291 140 291 l 98 55 b 93 25 113 1 142 1 b 142 1 142 1 142 1 b 142 1 142 1 142 1 b 171 1 200 25 204 55 l 247 291 b 256 348 310 394 367 394 b 424 394 462 348 452 291 l 410 55 z"},"h":{"x_min":0,"x_max":613,"ha":613,"o":"m 469 1 b 499 1 528 26 534 56 l 577 283 b 598 404 518 501 398 501 b 359 501 320 491 286 473 l 313 646 b 318 676 298 701 267 701 b 236 701 207 676 202 646 l 142 283 l 98 56 b 93 26 113 1 144 1 b 174 1 203 26 209 56 l 252 283 b 263 342 319 390 378 390 b 437 390 477 342 466 283 l 423 56 b 418 26 438 1 469 1 z"},"z":{"x_min":0,"x_max":554,"ha":554,"o":"m 412 106 l 230 106 l 510 415 b 510 415 510 415 511 416 b 512 417 513 419 514 420 b 515 422 516 423 517 425 b 518 426 519 428 520 430 b 521 431 522 433 523 435 b 523 436 523 438 524 439 b 524 440 525 443 526 445 b 526 445 526 445 526 446 b 526 447 526 448 526 449 b 526 451 527 453 527 455 b 527 457 526 459 526 460 b 526 462 526 464 525 466 b 525 467 525 469 524 470 b 524 472 523 473 522 475 b 522 476 521 478 520 479 b 519 480 518 482 517 483 b 516 485 515 486 514 487 b 513 488 512 489 511 490 b 511 490 511 490 511 490 b 509 491 507 491 506 492 b 505 493 503 494 502 494 b 501 495 500 496 498 496 b 497 497 495 497 494 498 b 492 498 491 498 489 498 b 487 499 485 499 483 499 b 483 499 483 499 482 499 l 194 499 b 165 499 137 476 132 446 b 127 417 146 392 176 392 l 358 392 l 78 83 b 78 83 78 83 78 82 b 76 81 75 79 74 77 b 73 77 71 76 71 74 b 70 72 69 71 68 69 b 67 67 66 66 66 64 b 65 62 65 61 64 59 b 63 57 63 55 62 53 b 62 53 62 53 62 52 b 62 51 62 50 62 48 b 62 47 61 45 61 43 b 61 41 62 39 62 37 b 62 36 62 34 62 33 b 63 31 63 29 64 28 b 64 26 65 25 66 24 b 66 23 67 21 68 20 b 69 19 70 17 71 16 b 72 14 73 13 74 12 b 75 11 76 10 77 9 b 77 9 77 9 78 9 b 78 8 79 8 80 7 b 82 6 83 5 85 4 b 86 4 87 3 87 3 b 89 2 91 1 93 1 b 94 0 95 0 96 0 b 99 -1 102 -1 106 -1 b 106 -1 106 -1 106 -1 l 394 -1 b 423 -1 451 23 456 52 b 461 81 442 106 412 106 z"},"B":{"x_min":0,"x_max":594,"ha":594,"o":"m 155 -1 b 156 -1 156 -1 156 -1 b 157 -1 157 -1 158 -1 l 336 -1 b 454 -1 567 95 588 213 b 601 290 573 357 519 395 b 548 426 569 466 577 508 b 595 614 525 699 420 699 l 281 699 b 281 699 280 699 280 699 b 279 699 279 699 279 699 b 248 699 219 674 214 644 l 110 54 b 104 24 125 -1 155 -1 z m 355 110 l 230 110 l 267 317 l 392 317 b 449 317 487 270 477 213 b 467 156 412 110 355 110 z m 466 508 b 458 464 416 428 372 428 l 286 428 l 315 588 l 400 588 b 444 588 474 552 466 508 z"},"K":{"x_min":0,"x_max":715,"ha":715,"o":"m 279 700 b 248 700 219 675 214 645 l 110 55 b 104 25 125 0 155 0 b 186 0 215 25 220 55 l 246 199 l 370 305 l 554 20 b 562 7 577 0 593 0 b 605 0 619 4 630 13 b 657 32 667 67 652 91 l 462 383 l 724 606 b 749 627 755 662 737 684 b 720 705 685 705 659 684 l 273 356 l 324 645 b 330 675 309 700 279 700 z"},"R":{"x_min":0,"x_max":625,"ha":625,"o":"m 578 83 b 575 99 564 111 550 117 b 549 127 549 146 555 176 b 562 218 556 255 541 284 b 533 298 524 310 514 321 b 568 360 609 419 620 486 b 641 604 562 700 444 700 l 266 700 b 266 700 266 700 265 700 b 265 700 265 700 265 700 b 234 700 205 675 200 645 l 96 55 b 90 25 111 0 141 0 b 172 0 201 25 206 55 l 245 272 l 363 272 b 372 269 396 262 415 248 b 426 239 435 230 440 218 b 445 207 447 195 444 176 b 435 120 435 84 445 56 b 450 41 459 29 471 20 b 483 12 497 9 508 9 b 508 9 508 9 508 9 b 518 9 526 11 531 13 b 561 22 582 54 578 83 z m 301 589 l 424 589 b 481 589 520 543 510 486 b 499 429 445 382 388 382 l 264 382 l 301 589 z"},"T":{"x_min":0,"x_max":648,"ha":648,"o":"m 56 645 b 50 614 71 590 101 590 l 259 590 l 165 56 b 159 25 180 0 210 0 b 241 0 270 25 275 56 l 369 590 l 527 590 b 557 590 587 614 592 645 b 597 676 577 700 546 700 l 121 700 b 90 700 61 676 56 645 z"},"P":{"x_min":0,"x_max":583,"ha":583,"o":"m 155 1 b 185 1 215 26 220 56 l 258 272 l 382 272 b 500 273 613 368 634 487 b 655 605 576 701 457 701 l 280 701 b 279 701 279 701 279 701 b 279 701 279 701 278 701 b 248 701 219 676 213 646 l 109 56 b 104 26 124 1 155 1 z m 523 487 b 513 430 458 383 401 383 l 278 383 l 314 590 l 438 590 b 495 590 533 544 523 487 z"},"|":{"x_min":0,"x_max":286,"ha":286,"o":"m 126 -85 b 121 -112 138 -133 163 -133 b 190 -133 217 -112 222 -85 l 372 755 b 377 782 360 803 333 803 b 307 803 280 782 275 755 z"},"t":{"x_min":0,"x_max":400,"ha":400,"o":"m 229 701 b 199 701 170 676 164 646 l 142 500 l 113 500 b 82 500 53 475 48 444 b 42 414 63 389 93 389 l 123 389 l 70 112 b 59 51 100 1 162 1 b 192 1 221 26 227 56 b 232 87 212 112 181 112 b 181 112 181 112 181 112 l 233 389 l 259 389 b 290 389 319 414 324 444 b 330 475 309 500 279 500 l 253 500 l 275 646 b 280 676 260 701 229 701 z"},"M":{"x_min":0,"x_max":868,"ha":868,"o":"m 320 678 b 312 694 296 702 279 701 b 278 701 278 701 278 701 b 278 701 278 701 278 701 b 278 701 278 701 278 701 b 247 701 218 677 213 646 l 109 57 b 104 26 124 1 155 1 b 185 1 214 26 220 57 l 294 477 l 402 277 b 410 262 426 254 443 254 b 443 254 444 254 444 254 b 445 254 445 254 446 254 b 463 254 481 262 495 277 l 673 477 l 599 57 b 594 26 614 1 645 1 b 676 1 705 26 710 57 l 814 646 b 819 677 799 701 769 701 b 769 701 769 701 769 701 b 768 701 768 701 768 701 b 768 701 768 701 768 701 b 750 702 732 694 718 679 l 470 402 l 320 678 z"},"g":{"x_min":0,"x_max":660,"ha":660,"o":"m 555 246 b 555 247 555 247 555 247 l 590 446 b 596 476 576 500 546 500 b 520 500 495 482 486 456 b 452 484 408 500 358 500 b 291 500 224 470 173 424 b 121 378 84 315 72 246 b 60 178 75 114 110 68 b 145 23 201 -8 269 -8 b 269 -8 269 -8 269 -8 b 317 -8 365 8 407 33 b 385 -28 322 -75 257 -75 b 235 -75 217 -70 200 -61 b 176 -48 142 -59 124 -86 b 106 -113 112 -145 136 -158 b 165 -173 200 -182 238 -182 b 372 -182 499 -74 522 60 l 555 246 b 555 246 555 246 555 246 z m 288 101 b 252 101 222 116 201 143 b 182 169 172 205 180 246 b 187 288 209 324 238 350 b 268 376 303 392 340 392 b 376 392 405 376 425 350 b 445 325 455 288 448 247 l 447 246 b 440 205 418 168 388 143 b 359 116 324 101 288 101 z"},"j":{"x_min":0,"x_max":249,"ha":249,"o":"m 311 644 b 316 674 295 700 264 700 b 232 700 203 674 198 644 l 194 623 b 189 591 210 565 240 565 b 272 565 302 591 307 623 l 311 644 z m 230 500 b 198 500 168 476 163 444 l 67 -85 b 67 -85 67 -85 67 -85 b 36 -85 6 -110 1 -141 b -5 -173 16 -198 47 -198 b 109 -198 169 -147 180 -85 l 276 444 b 281 476 261 500 230 500 z"},"i":{"x_min":0,"x_max":281,"ha":281,"o":"m 99 54 b 94 24 114 -1 145 -1 b 176 -1 205 24 210 54 l 282 445 b 288 475 267 500 237 500 b 206 500 177 475 172 445 l 99 54 z m 310 623 l 314 644 b 319 674 299 699 268 699 b 238 699 209 674 203 644 l 200 623 b 194 592 215 567 245 567 b 276 567 305 592 310 623 z"},"y":{"x_min":0,"x_max":588,"ha":588,"o":"m 537 447 b 540 465 534 481 521 490 b 514 497 504 500 492 500 b 474 500 456 490 443 475 b 436 467 431 457 429 447 l 388 207 b 377 150 323 103 265 103 b 207 103 169 150 179 207 l 222 447 b 227 477 207 500 177 500 b 148 500 120 477 114 447 l 72 207 b 52 91 130 -4 246 -4 b 281 -4 315 4 347 20 b 320 -34 263 -71 205 -71 b 184 -71 165 -66 149 -58 b 125 -45 90 -56 72 -82 b 55 -109 60 -141 84 -154 b 113 -170 148 -179 186 -179 b 319 -179 446 -71 469 62 l 523 370 l 537 447 z"},"@":{"x_min":0,"x_max":980,"ha":980,"o":"m 499 702 b 305 702 121 545 87 352 b 53 159 182 2 375 2 b 405 2 435 6 464 13 b 495 20 518 50 515 80 b 513 110 486 127 455 120 l 455 120 b 436 115 415 113 395 113 b 263 113 175 220 198 352 b 221 484 347 591 479 591 b 611 591 699 484 676 352 b 669 313 654 276 631 244 b 630 242 623 234 616 227 b 613 225 611 223 608 222 l 629 341 b 629 342 629 344 629 345 b 630 347 631 349 631 352 b 641 407 629 457 600 494 b 572 531 527 555 473 555 b 418 555 365 531 324 494 b 283 457 253 407 243 352 b 233 297 245 247 274 210 b 302 173 347 149 401 149 b 401 149 401 149 401 149 b 433 149 465 158 494 172 b 496 162 499 152 505 142 b 516 121 543 104 574 104 b 583 104 592 105 601 108 b 640 117 668 139 687 156 b 706 173 717 188 719 190 l 720 191 l 720 192 b 753 240 777 294 787 352 b 821 545 692 702 499 702 z m 483 286 b 465 269 443 260 421 260 b 399 260 380 269 368 286 b 355 302 349 325 354 352 b 358 378 373 402 391 418 b 409 435 431 444 453 444 b 475 444 494 435 506 418 b 519 402 525 378 520 352 b 516 325 501 302 483 286 z"},".":{"x_min":0,"x_max":230,"ha":230,"o":"m 181 50 b 181 77 159 99 132 99 b 106 99 82 77 82 50 b 82 24 106 0 132 0 b 159 0 181 24 181 50 z"},"p":{"x_min":0,"x_max":660,"ha":660,"o":"m 454 500 b 404 500 354 484 310 458 b 309 482 291 500 265 500 b 235 500 206 476 201 445 l 98 -135 b 93 -165 113 -190 143 -190 b 173 -190 202 -165 208 -135 l 238 40 b 272 13 316 -2 366 -3 b 501 -2 630 112 654 249 b 678 386 591 500 454 500 z m 487 149 b 457 123 423 107 385 107 b 348 107 318 123 297 149 b 278 173 267 208 276 249 b 282 289 304 324 332 350 b 362 375 399 391 436 391 b 472 391 502 375 523 350 b 544 324 552 289 545 249 b 539 208 517 173 487 149 z"},"X":{"x_min":0,"x_max":722,"ha":722,"o":"m 710 691 b 689 709 653 703 631 679 l 419 445 l 289 679 b 276 703 242 709 214 691 b 186 673 175 638 189 613 l 334 351 l 96 89 b 74 65 73 30 95 12 b 103 5 114 1 125 1 b 142 1 161 9 174 24 l 386 258 l 515 24 b 524 9 539 1 556 1 b 567 1 579 5 591 12 b 618 30 630 65 616 89 l 471 351 l 709 613 b 731 638 732 673 710 691 z"},"*":{"x_min":0,"x_max":430,"ha":430,"o":"m 359 405 b 363 421 350 436 334 436 b 325 436 318 433 309 426 l 246 384 l 266 451 b 273 471 263 487 244 487 b 224 487 209 471 208 450 l 205 384 l 157 426 b 150 433 145 436 137 436 b 119 436 102 422 99 406 b 97 391 105 380 116 375 l 176 348 l 106 320 b 94 316 82 306 79 291 b 76 274 88 259 105 259 b 112 259 120 262 129 269 l 192 311 l 172 245 b 166 224 174 209 194 209 b 214 209 229 225 230 245 l 233 311 l 281 269 b 288 262 293 259 302 259 b 318 259 336 273 339 290 b 341 305 334 315 322 320 l 261 348 l 332 375 b 344 380 357 390 359 405 z"},"Y":{"x_min":0,"x_max":604,"ha":604,"o":"m 592 611 b 614 636 615 670 593 688 b 572 706 536 701 514 676 l 300 440 l 169 676 b 155 701 121 706 93 688 b 66 670 54 636 68 611 l 225 328 l 176 54 b 171 24 191 -1 222 -1 b 252 -1 282 24 287 54 l 335 328 l 592 611 z"},"c":{"x_min":0,"x_max":571,"ha":571,"o":"m 299 0 b 299 0 299 0 299 0 b 360 0 420 20 470 55 b 497 73 507 107 493 131 b 479 155 446 159 419 141 b 389 120 354 108 318 108 b 233 108 178 175 192 255 b 206 335 285 401 370 401 b 406 401 437 389 459 369 b 480 351 515 355 537 378 b 560 402 561 436 541 455 b 503 489 450 510 389 510 b 246 510 109 397 83 255 b 58 113 156 0 299 0 z"},"!":{"x_min":0,"x_max":252,"ha":252,"o":"m 267 701 b 237 701 207 676 202 645 l 137 275 b 131 244 152 219 182 219 b 213 219 242 244 248 275 l 313 645 b 319 676 298 701 267 701 z m 167 133 b 137 133 107 108 102 78 l 98 56 b 93 26 113 1 144 1 b 175 1 204 26 209 56 l 213 78 b 218 108 198 133 167 133 z"},"/":{"x_min":0,"x_max":500,"ha":500,"o":"m 36 4 l 36 4 b 42 1 50 0 56 0 l 56 0 b 77 0 98 12 107 33 l 352 617 l 352 617 b 364 644 351 677 324 688 l 324 688 b 295 700 263 687 251 659 l 6 76 l 6 76 b -6 48 7 15 36 4 z"},"[":{"x_min":0,"x_max":430,"ha":430,"o":"m 103 -65 b 98 -98 119 -125 152 -125 l 358 -125 b 384 -125 410 -103 414 -77 b 419 -51 401 -30 375 -30 l 226 -30 l 338 610 l 487 610 b 513 610 539 631 544 657 b 548 683 530 705 504 705 l 298 705 b 265 705 234 678 229 645 l 103 -65 z"},"6":{"x_min":0,"x_max":642,"ha":642,"o":"m 362 487 b 328 487 294 479 262 467 b 268 476 274 485 280 493 b 302 522 328 546 356 563 b 384 579 416 590 455 592 b 486 593 514 618 518 649 b 522 680 501 703 470 702 b 412 700 358 683 311 655 b 241 613 189 550 152 484 b 116 417 93 345 81 279 b 77 259 75 240 73 221 b 73 221 74 220 74 220 b 64 97 151 2 277 2 b 411 2 538 110 562 244 b 586 378 496 487 362 487 z m 296 113 b 223 113 175 172 187 244 b 200 317 270 376 343 376 b 416 376 464 317 451 244 l 451 244 b 438 172 369 113 296 113 z"},"r":{"x_min":0,"x_max":439,"ha":439,"o":"m 230 500 b 201 500 172 476 168 447 l 98 53 b 93 24 113 0 142 0 b 171 0 200 24 205 53 l 238 242 b 245 257 266 294 295 327 b 312 346 330 364 350 375 b 370 386 390 393 414 393 b 443 393 470 418 476 447 b 481 476 462 500 432 500 b 383 500 337 483 300 459 b 290 453 281 447 272 440 l 274 447 b 279 476 260 500 230 500 z"},"2":{"x_min":0,"x_max":590,"ha":590,"o":"m 474 109 l 262 109 l 481 280 b 541 327 580 393 591 458 b 601 515 591 573 557 619 b 519 671 458 698 393 698 b 336 698 274 677 221 636 l 185 608 b 159 587 151 552 167 530 b 184 507 218 505 245 526 l 245 526 l 281 554 b 310 576 343 587 374 587 b 409 587 441 573 462 545 b 480 520 486 489 480 458 b 474 423 454 388 421 362 l 78 95 b 52 74 44 39 61 16 b 69 4 83 -2 98 -2 b 99 -2 100 -2 100 -2 b 101 -2 101 -2 102 -2 l 455 -2 b 485 -2 514 23 520 53 b 525 84 505 109 474 109 z"},"{":{"x_min":0,"x_max":480,"ha":480,"o":"m 325 -148 b 354 -155 382 -136 387 -107 b 391 -83 377 -70 366 -66 b 274 -36 266 -5 278 63 b 281 83 289 116 293 137 b 307 215 276 252 213 274 b 283 295 327 333 341 411 b 345 432 349 465 352 485 b 364 553 384 584 486 614 b 499 618 517 631 521 655 b 526 684 506 703 473 696 b 312 662 260 600 243 503 b 241 488 236 448 233 431 b 220 357 188 325 119 322 b 87 320 65 301 60 274 b 55 247 71 228 102 226 b 170 224 190 191 177 118 b 174 101 165 61 163 46 b 145 -52 176 -114 325 -148 z"},"9":{"x_min":0,"x_max":642,"ha":642,"o":"m 578 482 b 587 604 500 699 375 699 b 241 699 113 591 89 457 b 66 323 155 215 289 215 b 324 215 358 222 389 235 b 384 226 378 217 371 209 b 349 179 324 155 296 139 b 267 122 236 111 197 110 b 166 109 138 83 133 52 b 129 22 150 -1 179 -1 b 180 -1 181 -1 182 -1 b 240 1 294 19 340 46 b 411 88 462 151 499 217 b 536 284 559 356 570 422 b 574 442 576 461 578 480 b 578 481 578 481 578 482 z m 309 325 b 236 325 187 384 200 457 b 213 529 282 588 355 588 b 428 588 477 529 464 457 b 451 384 382 325 309 325 z"}," ":{"x_min":0,"x_max":300,"ha":300,"o":""},"I":{"x_min":0,"x_max":305,"ha":305,"o":"m 227 54 l 331 644 b 336 674 316 699 285 699 b 255 699 226 674 220 644 l 116 54 b 111 24 131 -1 162 -1 b 192 -1 222 24 227 54 z"},"H":{"x_min":0,"x_max":760,"ha":760,"o":"m 521 295 l 479 55 b 474 25 494 0 525 0 b 555 0 585 25 590 55 l 694 645 b 699 675 679 700 648 700 b 618 700 589 675 583 645 l 541 405 l 282 405 l 324 645 b 330 675 309 700 279 700 b 248 700 219 675 213 645 l 110 55 b 104 25 125 0 155 0 b 186 0 215 25 220 55 l 262 295 l 521 295 z"},"4":{"x_min":0,"x_max":664,"ha":664,"o":"m 555 239 l 545 239 l 616 643 b 616 644 616 644 616 645 b 616 647 617 650 617 652 b 617 653 617 655 616 656 b 616 658 616 660 616 662 b 615 663 615 665 615 666 b 614 668 614 670 613 671 b 612 673 611 674 611 676 b 610 677 609 679 608 680 b 607 681 606 683 605 684 b 604 685 604 685 603 686 b 602 686 602 687 601 687 b 600 688 598 689 597 690 b 596 691 594 692 593 693 b 591 694 590 694 588 695 b 587 695 585 696 583 696 b 582 697 580 697 578 697 b 576 698 575 698 573 698 b 572 698 571 698 570 698 b 569 698 568 698 568 698 b 566 698 564 698 562 697 b 560 697 558 697 556 696 b 554 696 553 695 551 695 b 549 694 547 693 545 692 b 544 692 542 691 541 690 b 539 689 537 688 535 687 b 534 686 532 685 531 684 b 529 682 527 681 526 679 b 525 679 524 678 524 677 l 73 218 b 50 195 47 160 68 141 b 77 132 88 128 100 128 b 101 128 101 128 102 128 b 102 128 102 128 102 128 l 415 128 l 401 53 b 396 23 416 -2 447 -2 b 478 -2 507 23 512 53 l 525 128 l 535 128 b 566 128 595 153 600 184 b 606 214 585 239 555 239 z m 235 239 l 478 486 l 434 239 l 235 239 z"},"~":{"x_min":0,"x_max":460,"ha":460,"o":"m 154 247 b 166 269 177 279 201 279 b 236 279 289 239 344 239 b 398 239 425 272 446 330 b 449 337 450 347 450 353 b 450 370 433 387 413 387 b 398 387 387 377 381 366 b 369 344 358 335 334 335 b 299 335 246 374 191 374 b 137 374 110 341 89 283 b 86 277 85 266 85 261 b 85 243 102 227 122 227 b 137 227 148 236 154 247 z"},"D":{"x_min":0,"x_max":719,"ha":719,"o":"m 155 0 b 155 0 155 0 156 0 b 156 0 156 0 156 0 l 273 0 b 466 0 651 157 685 350 b 719 544 590 700 397 700 l 279 700 b 279 700 279 700 279 700 b 279 700 279 700 279 700 b 248 700 219 676 213 645 l 110 56 b 104 25 125 0 155 0 z m 574 350 b 551 218 425 111 293 111 l 230 111 l 314 590 l 377 590 b 509 589 597 483 574 350 z"},"^":{"x_min":0,"x_max":500,"ha":500,"o":"m 279 625 l 332 532 b 351 497 366 488 396 488 b 412 488 425 496 428 508 b 430 517 428 527 423 538 l 355 668 b 342 691 328 704 300 704 l 291 704 b 263 704 243 691 223 668 l 101 538 b 91 527 85 517 83 508 b 80 496 91 488 107 488 b 136 488 153 497 188 532 z"},"0":{"x_min":0,"x_max":710,"ha":710,"o":"m 395 699 b 317 699 244 652 190 588 b 136 524 97 440 81 349 b 65 258 74 174 106 110 b 137 46 194 -1 272 -1 b 350 -1 424 46 477 110 b 531 174 570 258 586 349 b 602 440 593 524 561 588 b 530 652 473 699 395 699 z m 396 172 b 359 129 322 110 291 110 b 260 110 230 129 209 172 b 188 214 179 278 192 349 b 204 420 235 484 271 527 b 308 570 345 589 376 588 b 407 589 437 570 458 527 b 480 484 488 420 476 349 b 463 278 432 214 396 172 z"},"F":{"x_min":0,"x_max":600,"ha":600,"o":"m 155 0 b 186 0 215 25 220 55 l 263 295 l 496 295 b 526 295 555 319 561 350 b 566 381 546 405 515 405 l 282 405 l 315 589 l 585 589 b 616 589 645 614 650 645 b 656 675 635 700 605 700 l 281 700 b 280 700 280 700 280 700 b 279 700 279 700 279 700 b 248 700 219 675 214 645 l 110 55 b 104 25 125 0 155 0 z"},"`":{"x_min":0,"x_max":500,"ha":500,"o":"m 318 590 b 336 590 349 598 349 611 b 349 618 344 627 340 633 l 283 721 b 272 739 256 750 235 750 b 203 750 163 730 163 711 b 163 700 170 690 180 681 l 248 617 b 271 595 290 590 318 590 z"},"k":{"x_min":0,"x_max":560,"ha":560,"o":"m 144 0 b 175 0 204 25 209 55 l 225 142 l 290 198 l 405 20 b 414 7 428 0 444 0 b 457 0 470 4 482 13 b 509 32 518 67 503 90 l 383 276 l 559 426 b 584 447 590 482 572 504 b 555 525 520 525 494 504 l 252 298 l 313 645 b 319 675 298 700 268 700 b 237 700 208 675 203 645 l 99 55 b 93 25 114 0 144 0 z"},"u":{"x_min":0,"x_max":613,"ha":613,"o":"m 519 500 b 490 500 462 477 457 447 l 415 210 b 405 154 351 108 294 108 b 238 108 199 154 209 210 l 251 447 b 256 477 237 500 207 500 b 178 500 151 477 145 447 l 104 210 b 83 95 160 1 276 1 b 391 1 501 95 521 210 l 562 447 b 568 477 549 500 519 500 z"},"]":{"x_min":0,"x_max":430,"ha":430,"o":"m 500 645 b 505 678 484 705 451 705 l 245 705 b 219 705 193 683 189 657 b 184 631 202 610 228 610 l 377 610 l 265 -30 l 116 -30 b 90 -30 64 -51 59 -77 b 55 -103 73 -125 99 -125 l 305 -125 b 338 -125 369 -98 374 -65 z"},"U":{"x_min":0,"x_max":814,"ha":814,"o":"m 728 700 b 698 700 668 676 663 645 l 600 289 b 583 191 489 111 390 111 b 292 111 226 191 243 289 l 306 645 b 312 676 291 700 261 700 b 230 700 201 676 195 645 l 133 289 b 105 130 211 0 371 0 b 531 0 683 130 711 289 l 774 645 b 779 676 759 700 728 700 z"},"o":{"x_min":0,"x_max":625,"ha":625,"o":"m 365 500 b 298 500 232 470 181 425 b 131 379 94 317 82 249 b 70 180 85 118 119 73 b 155 27 210 -2 277 -2 b 277 -2 277 -2 277 -2 b 344 -2 410 27 460 73 b 511 118 548 180 560 249 b 572 317 557 379 523 425 b 487 470 432 500 365 500 z m 454 249 b 446 208 424 171 396 146 b 366 120 331 104 295 104 b 260 104 230 120 210 146 b 190 171 181 208 188 249 b 196 289 218 326 246 351 b 276 378 310 393 347 393 b 382 393 412 378 431 351 b 452 326 461 289 454 249 l 454 249 z"},"N":{"x_min":0,"x_max":790,"ha":790,"o":"m 110 55 b 104 24 125 0 155 0 b 186 0 215 24 220 55 l 294 474 l 538 26 b 539 23 541 21 542 19 b 550 7 564 0 580 0 b 611 0 640 24 645 55 l 749 642 b 754 672 734 697 703 697 b 673 697 644 672 638 642 l 565 225 l 319 677 b 306 702 272 707 245 689 b 227 678 216 660 213 642 b 213 642 213 642 213 642 l 110 55 z"},"+":{"x_min":0,"x_max":620,"ha":620,"o":"m 413 401 l 327 401 l 344 487 b 350 515 331 540 301 540 b 272 540 243 515 237 487 l 220 401 l 134 401 b 105 401 76 377 70 348 b 64 318 83 294 112 294 l 198 294 l 180 208 b 174 180 193 155 222 155 b 252 155 281 180 287 208 l 305 294 l 391 294 b 419 294 449 318 455 348 b 461 377 441 401 413 401 z"},"G":{"x_min":0,"x_max":800,"ha":800,"o":"m 403 1 b 403 1 403 1 404 1 b 487 1 570 30 639 77 b 648 83 655 91 660 100 b 661 101 661 101 661 101 b 662 103 663 105 664 107 b 666 112 668 117 669 122 l 707 338 b 712 369 692 393 661 393 b 661 393 661 393 661 393 b 660 393 660 393 660 393 l 468 393 b 437 393 408 369 403 338 b 397 308 418 283 448 283 l 587 283 l 563 150 b 520 126 472 112 423 112 b 354 112 297 139 260 183 b 223 226 206 286 218 351 b 229 417 267 476 319 520 b 372 564 438 591 507 591 b 566 591 616 571 653 538 b 674 519 709 524 732 548 b 755 572 757 607 736 625 b 684 673 611 701 527 701 b 330 701 142 546 107 351 b 73 157 207 2 403 1 z"},"q":{"x_min":0,"x_max":660,"ha":660,"o":"m 570 250 l 604 445 b 610 476 589 499 560 499 b 534 499 509 482 499 457 b 465 484 422 499 371 499 b 235 499 108 387 84 249 b 60 113 147 0 283 -1 b 333 0 382 15 425 41 l 394 -132 b 388 -162 409 -187 438 -187 b 469 -187 497 -162 502 -132 l 570 249 b 570 249 570 249 570 249 b 570 249 570 250 570 250 z m 403 149 b 374 124 338 108 302 108 b 265 108 235 124 214 149 b 194 175 185 210 192 249 b 199 289 221 325 250 350 b 280 376 315 391 351 391 b 388 391 419 376 439 350 b 459 325 468 289 461 250 l 461 249 b 454 210 433 175 403 149 z"},"d":{"x_min":0,"x_max":660,"ha":660,"o":"m 283 -1 b 334 -1 383 16 426 42 b 427 18 446 -1 472 -1 b 502 -1 530 24 536 54 l 638 646 b 643 676 623 700 593 700 b 564 700 534 676 529 646 l 499 457 b 464 484 421 500 371 500 b 235 500 108 386 84 249 b 60 113 147 0 283 -1 z m 250 350 b 279 376 315 391 352 391 b 389 391 419 376 440 350 b 459 325 468 290 461 249 b 455 210 433 175 404 149 b 374 124 339 108 302 108 b 265 108 235 124 214 149 b 194 175 185 210 193 249 b 199 290 221 325 250 350 z"},"1":{"x_min":0,"x_max":335,"ha":335,"o":"m 286 653 b 286 655 286 657 286 658 b 286 660 285 662 285 664 b 285 665 284 667 284 669 b 283 670 283 671 283 672 b 282 673 282 673 282 673 b 281 675 280 676 279 678 b 278 679 278 681 277 682 b 276 683 275 684 274 685 b 272 687 271 688 270 689 b 269 690 267 691 266 692 b 264 692 263 693 261 694 b 260 695 258 695 257 696 b 255 697 254 697 252 698 b 250 698 249 698 247 698 b 245 699 243 699 241 699 b 241 699 240 699 240 699 b 239 699 238 699 236 699 b 234 699 232 699 230 698 b 228 698 227 697 225 697 b 223 696 221 696 219 695 b 217 695 215 694 213 693 b 212 692 211 692 210 691 l 74 618 b 45 603 30 569 41 542 b 49 525 65 515 84 515 b 94 515 104 518 114 523 l 158 547 l 71 54 b 65 24 86 -1 116 -1 b 147 -1 176 24 181 54 l 285 644 b 286 645 285 646 286 647 b 286 649 286 651 286 653 z"},"5":{"x_min":0,"x_max":605,"ha":605,"o":"m 537 588 b 568 588 598 613 603 644 b 609 676 588 701 557 701 l 262 701 b 252 701 243 699 235 695 b 233 694 232 693 231 693 b 230 692 228 691 227 690 b 212 682 200 667 195 650 l 119 392 b 117 386 116 381 117 375 b 117 374 117 374 117 373 b 117 371 117 369 117 367 b 118 365 118 363 119 361 b 119 360 119 359 119 359 b 121 354 123 349 127 345 b 145 323 181 323 207 345 b 238 371 275 384 310 384 b 344 384 376 371 398 345 b 420 319 427 285 421 250 b 414 215 395 181 364 154 b 333 128 296 115 261 114 b 227 115 195 127 173 154 b 155 176 119 176 93 154 b 67 132 60 96 79 74 l 79 74 b 118 25 178 1 241 1 b 241 1 241 1 241 1 b 305 1 373 26 430 74 b 487 122 523 186 534 250 b 545 313 532 377 492 425 b 452 474 393 498 330 498 b 307 498 284 495 261 489 l 291 588 l 537 588 z"}}}
